<svg width="306" height="406" viewBox="0 0 306 406" fill="none" xmlns="http://www.w3.org/2000/svg">
<path d="M93.1561 135.326C99.3662 145.262 111.786 166.747 111.786 173.205C111.786 179.663 129.588 226.402 138.489 248.964M138.489 248.964C138.076 225.574 135.509 177.676 128.554 173.205C121.598 168.734 122.344 125.804 123.586 104.898M138.489 248.964C142.63 230.335 150.289 189.102 147.805 173.205C145.321 157.308 152.152 135.119 155.879 126.011" stroke="white"/>
<ellipse cx="47.196" cy="47.1949" rx="47.196" ry="47.1949" transform="matrix(0.866041 0.499973 -0.500027 0.86601 166.436 17.9618)" fill="url(#paint0_radial_1_359)"/>
<rect width="47.196" height="4.96789" rx="2.48394" transform="matrix(0.866041 0.499973 -0.500027 0.86601 143.402 105.049)" fill="white"/>
<rect width="37.26" height="4.96789" rx="2.48394" transform="matrix(0.866041 0.499973 -0.500027 0.86601 145.22 111.835)" fill="#ECE9E9"/>
<ellipse cx="5.589" cy="5.58887" rx="5.589" ry="5.58887" transform="matrix(0.866041 0.499973 -0.500027 0.86601 152.871 123.423)" fill="#ECEBEB"/>
<rect width="28.566" height="4.96788" rx="2.48394" transform="matrix(0.866041 0.499973 -0.500027 0.86601 145.963 118.001)" fill="white"/>
<ellipse cx="47.1965" cy="47.1944" rx="47.1965" ry="47.1944" transform="matrix(0.866038 -0.499978 0.500022 0.866013 0.117554 66.2682)" fill="url(#paint1_radial_1_359)"/>
<rect width="47.1965" height="4.96784" rx="2.48392" transform="matrix(0.866039 -0.499977 0.500023 0.866012 64.025 129.758)" fill="white"/>
<rect width="37.2604" height="4.96784" rx="2.48392" transform="matrix(0.866038 -0.499978 0.500022 0.866013 70.8116 131.576)" fill="#ECE9E9"/>
<ellipse cx="5.58905" cy="5.58881" rx="5.58905" ry="5.58881" transform="matrix(0.866038 -0.499979 0.500021 0.866013 84.6729 130.744)" fill="#ECEBEB"/>
<rect width="28.5663" height="4.96783" rx="2.48392" transform="matrix(0.866039 -0.499977 0.500023 0.866012 76.5225 134.016)" fill="white"/>
<ellipse cx="47.197" cy="47.1939" rx="47.197" ry="47.1939" transform="matrix(1 -5.85699e-06 -5.85738e-06 1 77.0105 0.575165)" fill="url(#paint2_radial_1_359)"/>
<rect width="47.197" height="4.96778" rx="2.48389" transform="matrix(1 -5.86974e-06 -5.87013e-06 1 100.609 87.5112)" fill="white"/>
<rect width="37.2608" height="4.96778" rx="2.48389" transform="matrix(1 -5.80181e-06 -5.80219e-06 1 105.577 92.4789)" fill="#ECE9E9"/>
<ellipse cx="5.58914" cy="5.58875" rx="5.58914" ry="5.58875" transform="matrix(1 -6.1397e-06 -6.14013e-06 1 117.997 98.6886)" fill="#ECEBEB"/>
<rect width="28.5666" height="4.96778" rx="2.48389" transform="matrix(1 -5.92858e-06 -5.92898e-06 1 109.303 97.4467)" fill="white"/>
<rect width="121.718" height="114.26" rx="15" transform="matrix(0.964097 0.26555 -0.265592 0.964085 180.465 205.041)" fill="#686767"/>
<rect width="121.718" height="2.48391" transform="matrix(0.964097 0.26555 -0.265592 0.964085 172.219 234.975)" fill="#595959"/>
<rect width="121.718" height="2.48391" transform="matrix(0.964097 0.26555 -0.265592 0.964086 168.921 246.948)" fill="#595959"/>
<ellipse cx="2.48405" cy="2.48392" rx="2.48405" ry="2.48392" transform="matrix(0.964097 0.26555 -0.265592 0.964086 178.78 225.188)" fill="#7D7D7D"/>
<ellipse cx="2.484" cy="2.4839" rx="2.484" ry="2.4839" transform="matrix(0.964096 0.265553 -0.265589 0.964086 281.759 253.552)" fill="#7D7D7D"/>
<ellipse cx="2.48403" cy="2.4839" rx="2.48403" ry="2.4839" transform="matrix(0.964097 0.26555 -0.265592 0.964086 171.193 252.727)" fill="#7D7D7D"/>
<ellipse cx="2.48405" cy="2.48392" rx="2.48405" ry="2.48392" transform="matrix(0.964097 0.26555 -0.265592 0.964086 274.172 281.091)" fill="#7D7D7D"/>
<rect width="23.5983" height="63.3397" rx="10" transform="matrix(0.964097 0.26555 -0.265592 0.964086 252.378 275.74)" fill="white"/>
<ellipse cx="8.07312" cy="8.0727" rx="8.07312" ry="8.0727" transform="matrix(0.964097 0.26555 -0.265592 0.964085 247.566 325.943)" fill="url(#paint3_radial_1_359)"/>
<path d="M236.753 337.135L175.684 320.314L161.847 370.54C160.381 375.865 163.508 381.37 168.832 382.837L172.9 383.957C178.225 385.424 183.73 382.296 185.197 376.972L191.406 354.434C192.431 350.714 196.277 348.53 199.997 349.554C203.717 350.579 205.902 354.425 204.877 358.145L198.668 380.682C197.201 386.007 200.329 391.512 205.653 392.979L210.619 394.347C215.944 395.813 221.449 392.686 222.916 387.361L236.753 337.135Z" fill="white"/>
<rect width="80.7311" height="78.2431" transform="matrix(0.964097 0.26555 -0.265592 0.964085 187.423 244.967)" fill="#F2F2F2"/>
<rect width="75.763" height="22.3552" transform="matrix(0.964097 0.26555 -0.265592 0.964085 172.336 309.086)" fill="#F2F2F2"/>
<rect width="6.21009" height="78.2432" transform="matrix(0.964097 0.26555 -0.265592 0.964086 199.398 248.265)" fill="url(#paint4_linear_1_359)"/>
<rect width="6.2101" height="78.2431" transform="matrix(0.964097 0.265549 -0.265593 0.964085 244.9 260.798)" fill="url(#paint5_linear_1_359)"/>
<rect width="80.7311" height="2.48391" transform="matrix(0.964097 0.26555 -0.265592 0.964085 167.302 318.005)" fill="#9A9A9A"/>
<rect width="8.69415" height="19.8713" rx="4.34707" transform="matrix(0.964097 0.265549 -0.265593 0.964085 273.502 236.471)" fill="white"/>
<rect width="8.69412" height="19.8713" rx="4.34706" transform="matrix(0.964097 0.26555 -0.265592 0.964086 187.288 212.724)" fill="white"/>
<path d="M274.215 246.973C267.693 270.646 243.215 284.551 219.54 278.03C195.866 271.509 181.961 247.032 188.482 223.359C195.004 199.686 219.482 185.782 243.157 192.303C266.831 198.823 280.736 223.3 274.215 246.973Z" fill="white" stroke="#F2F2F2" stroke-width="0.5"/>
<path fill-rule="evenodd" clip-rule="evenodd" d="M274.061 248.219C266.567 270.569 242.808 283.41 219.804 277.073C196.8 270.737 182.968 247.542 187.977 224.508C187.715 225.289 187.473 226.081 187.252 226.885C180.693 250.691 194.677 275.305 218.484 281.863C242.292 288.42 266.908 274.438 273.466 250.632C273.688 249.828 273.886 249.023 274.061 248.219Z" fill="#DDDDDD"/>
<path fill-rule="evenodd" clip-rule="evenodd" d="M272.741 253.008C265.247 275.358 241.488 288.199 218.484 281.863C195.48 275.526 181.648 252.332 186.657 229.297C186.396 230.078 186.154 230.87 185.932 231.674C179.374 255.48 193.357 280.094 217.165 286.652C240.972 293.209 265.589 279.227 272.147 255.421C272.368 254.617 272.566 253.813 272.741 253.008Z" fill="white"/>
<path d="M273.916 231.432C262.351 217.297 222.567 205.051 200.232 206.628C188.533 223.373 186.054 243.642 199.116 259.781C206.369 268.743 213.446 271.949 224.677 274.551C232.987 276.477 238.315 277.109 246.518 274.77C265.774 269.279 275.139 243.363 273.916 231.432Z" fill="black"/>
<rect x="234.125" y="285.362" width="2.48404" height="1.24196" rx="0.620981" transform="rotate(-4.59913 234.125 285.362)" fill="#C4C4C4"/>
<rect width="1.24206" height="1.24191" rx="0.620954" transform="matrix(0.99678 -0.0801843 0.0801826 0.99678 239.575 284.287)" fill="#C4C4C4"/>
<mask id="mask0_1_359" style="mask-type:alpha" maskUnits="userSpaceOnUse" x="190" y="206" width="85" height="71">
<path d="M273.916 231.432C262.351 217.297 222.567 205.051 200.232 206.628C188.533 223.373 186.054 243.642 199.116 259.781C206.369 268.743 213.446 271.949 224.677 274.551C232.987 276.477 238.315 277.109 246.518 274.77C265.774 269.279 275.139 243.363 273.916 231.432Z" fill="black"/>
</mask>
<g mask="url(#mask0_1_359)">
<rect width="12.4197" height="68.8181" transform="matrix(0.637436 0.770503 -0.770543 0.637388 233.218 200.311)" fill="#484848"/>
<rect width="7.00796" height="72.5482" transform="matrix(0.637436 0.770503 -0.770543 0.637388 250.624 212.409)" fill="#484848"/>
</g>
<ellipse cx="8.07311" cy="8.0727" rx="8.07311" ry="8.0727" transform="matrix(0.964097 0.26555 -0.265592 0.964086 202.976 211.893)" fill="#828282" fill-opacity="0.5"/>
<ellipse cx="4.34708" cy="4.34683" rx="4.34708" ry="4.34683" transform="matrix(0.964098 0.265548 -0.265594 0.964085 214.951 215.191)" fill="#828282" fill-opacity="0.5"/>
<ellipse cx="3.10503" cy="3.10489" rx="3.10503" ry="3.10489" transform="matrix(0.964097 0.265552 -0.26559 0.964086 199.678 223.866)" fill="#828282" fill-opacity="0.5"/>
<ellipse cx="3.10504" cy="3.10489" rx="3.10504" ry="3.10489" transform="matrix(0.964097 0.265551 -0.265592 0.964086 215.109 195.911)" fill="#E8E8E8"/>
<ellipse cx="3.10506" cy="3.10489" rx="3.10506" ry="3.10489" transform="matrix(0.964098 0.265548 -0.265594 0.964085 229.6 194.75)" fill="#E8E8E8"/>
<rect width="33.5345" height="17.3874" rx="5" transform="matrix(0.964097 0.26555 -0.265592 0.964086 198.422 289.219)" fill="#273AE7"/>
<path d="M218.118 297.22L210.517 300.763L215.513 301.334L205.24 306.555" stroke="#D2CB15"/>
<path d="M178.883 261.938C181.938 260.203 185.345 262.644 186.666 264.081L183.368 276.055C183.368 276.055 166.403 286.196 159.652 284.981C155.985 284.321 136.192 257.908 136.192 257.908L143.247 246.325L163.146 267.782C163.721 268.403 164.622 268.595 165.398 268.257C169.406 266.513 176.151 263.49 178.883 261.938Z" fill="white"/>
<ellipse cx="8.07312" cy="8.07269" rx="8.07312" ry="8.07269" transform="matrix(0.964097 0.265549 -0.265593 0.964085 132.098 240.034)" fill="url(#paint6_radial_1_359)"/>
<defs>
<radialGradient id="paint0_radial_1_359" cx="0" cy="0" r="1" gradientUnits="userSpaceOnUse" gradientTransform="translate(32.913 36.6382) rotate(69.6463) scale(41.0651 41.0658)">
<stop stop-color="#FFEFFB"/>
<stop offset="1" stop-color="#F672D9"/>
</radialGradient>
<radialGradient id="paint1_radial_1_359" cx="0" cy="0" r="1" gradientUnits="userSpaceOnUse" gradientTransform="translate(32.9133 36.6378) rotate(69.646) scale(41.0648 41.0661)">
<stop stop-color="#FFEFFB"/>
<stop offset="1" stop-color="#F672D9"/>
</radialGradient>
<radialGradient id="paint2_radial_1_359" cx="0" cy="0" r="1" gradientUnits="userSpaceOnUse" gradientTransform="translate(32.9137 36.6374) rotate(69.6455) scale(41.0644 41.0665)">
<stop stop-color="#FFEFFB"/>
<stop offset="1" stop-color="#F672D9"/>
</radialGradient>
<radialGradient id="paint3_radial_1_359" cx="0" cy="0" r="1" gradientUnits="userSpaceOnUse" gradientTransform="translate(9.93614 9.93564) rotate(-156.802) scale(4.72943 4.72926)">
<stop stop-color="white"/>
<stop offset="1" stop-color="#DDDDDD"/>
</radialGradient>
<linearGradient id="paint4_linear_1_359" x1="3.10504" y1="0" x2="3.10504" y2="78.2432" gradientUnits="userSpaceOnUse">
<stop stop-color="#3BB094"/>
<stop offset="1" stop-color="#232030"/>
</linearGradient>
<linearGradient id="paint5_linear_1_359" x1="3.10505" y1="0" x2="3.10505" y2="78.2431" gradientUnits="userSpaceOnUse">
<stop stop-color="#3BB094"/>
<stop offset="1" stop-color="#232030"/>
</linearGradient>
<radialGradient id="paint6_radial_1_359" cx="0" cy="0" r="1" gradientUnits="userSpaceOnUse" gradientTransform="translate(4.96807 4.34683) rotate(80.5372) scale(3.77726 3.77744)">
<stop stop-color="white"/>
<stop offset="1" stop-color="#DDDDDD"/>
</radialGradient>
</defs>
</svg>
