<svg width="306" height="406" viewBox="0 0 306 406" fill="none" xmlns="http://www.w3.org/2000/svg">
<path d="M93.0385 134.751C99.2486 144.687 111.669 166.173 111.669 172.631C111.669 179.089 129.471 225.827 138.372 248.389M138.372 248.389C137.958 224.999 135.391 177.102 128.436 172.631C121.481 168.16 122.226 125.23 123.468 104.324M138.372 248.389C142.512 229.76 150.171 188.527 147.687 172.63C145.204 156.734 152.035 134.544 155.761 125.437" stroke="white"/>
<ellipse cx="47.196" cy="47.1949" rx="47.196" ry="47.1949" transform="matrix(0.866041 0.499973 -0.500027 0.86601 167.198 17.9999)" fill="url(#paint0_radial_1_359)"/>
<rect width="47.196" height="4.96789" rx="2.48394" transform="matrix(0.866041 0.499973 -0.500027 0.86601 143.284 104.475)" fill="white"/>
<rect width="37.26" height="4.96789" rx="2.48394" transform="matrix(0.866041 0.499973 -0.500027 0.86601 145.103 111.261)" fill="#ECE9E9"/>
<ellipse cx="5.589" cy="5.58887" rx="5.589" ry="5.58887" transform="matrix(0.866041 0.499973 -0.500027 0.86601 152.754 122.848)" fill="#ECEBEB"/>
<rect width="28.566" height="4.96788" rx="2.48394" transform="matrix(0.866041 0.499973 -0.500027 0.86601 145.845 117.426)" fill="white"/>
<ellipse cx="47.1965" cy="47.1944" rx="47.1965" ry="47.1944" transform="matrix(0.866038 -0.499978 0.500022 0.866013 0 65.6936)" fill="url(#paint1_radial_1_359)"/>
<rect width="47.1965" height="4.96784" rx="2.48392" transform="matrix(0.866039 -0.499977 0.500023 0.866012 63.9075 129.184)" fill="white"/>
<rect width="37.2604" height="4.96784" rx="2.48392" transform="matrix(0.866038 -0.499978 0.500022 0.866013 70.6941 131.002)" fill="#ECE9E9"/>
<ellipse cx="5.58905" cy="5.58881" rx="5.58905" ry="5.58881" transform="matrix(0.866038 -0.499979 0.500021 0.866013 84.5554 130.17)" fill="#ECEBEB"/>
<rect width="28.5663" height="4.96783" rx="2.48392" transform="matrix(0.866039 -0.499977 0.500023 0.866012 76.4049 133.441)" fill="white"/>
<ellipse cx="47.197" cy="47.1939" rx="47.197" ry="47.1939" transform="matrix(1 -5.85699e-06 -5.85738e-06 1 76.8931 0.000610352)" fill="url(#paint2_radial_1_359)"/>
<rect width="47.197" height="4.96778" rx="2.48389" transform="matrix(1 -5.86974e-06 -5.87013e-06 1 100.491 86.9365)" fill="white"/>
<rect width="37.2608" height="4.96778" rx="2.48389" transform="matrix(1 -5.80181e-06 -5.80219e-06 1 105.459 91.9043)" fill="#ECE9E9"/>
<ellipse cx="5.58914" cy="5.58875" rx="5.58914" ry="5.58875" transform="matrix(1 -6.1397e-06 -6.14013e-06 1 117.879 98.114)" fill="#ECEBEB"/>
<rect width="28.5666" height="4.96778" rx="2.48389" transform="matrix(1 -5.92858e-06 -5.92898e-06 1 109.185 96.8721)" fill="white"/>
<rect width="121.718" height="114.26" rx="15" transform="matrix(0.964097 0.26555 -0.265592 0.964085 180.348 204.466)" fill="#686767"/>
<rect width="121.718" height="2.48391" transform="matrix(0.964097 0.26555 -0.265592 0.964085 172.101 234.4)" fill="#595959"/>
<rect width="121.718" height="2.48391" transform="matrix(0.964097 0.26555 -0.265592 0.964086 168.803 246.374)" fill="#595959"/>
<ellipse cx="2.48405" cy="2.48392" rx="2.48405" ry="2.48392" transform="matrix(0.964097 0.26555 -0.265592 0.964086 178.662 224.614)" fill="#7D7D7D"/>
<ellipse cx="2.484" cy="2.4839" rx="2.484" ry="2.4839" transform="matrix(0.964096 0.265553 -0.265589 0.964086 281.641 252.978)" fill="#7D7D7D"/>
<ellipse cx="2.48403" cy="2.4839" rx="2.48403" ry="2.4839" transform="matrix(0.964097 0.26555 -0.265592 0.964086 171.076 252.153)" fill="#7D7D7D"/>
<ellipse cx="2.48405" cy="2.48392" rx="2.48405" ry="2.48392" transform="matrix(0.964097 0.26555 -0.265592 0.964086 274.054 280.517)" fill="#7D7D7D"/>
<rect width="23.5983" height="63.3397" rx="10" transform="matrix(0.964097 0.26555 -0.265592 0.964086 252.26 275.165)" fill="white"/>
<ellipse cx="8.07312" cy="8.0727" rx="8.07312" ry="8.0727" transform="matrix(0.964097 0.26555 -0.265592 0.964085 247.448 325.368)" fill="url(#paint3_radial_1_359)"/>
<path d="M236.635 336.56L175.567 319.739L161.73 369.966C160.263 375.29 163.39 380.796 168.715 382.262L172.783 383.383C178.107 384.849 183.613 381.722 185.08 376.397L191.288 353.86C192.313 350.14 196.16 347.955 199.88 348.98C203.599 350.004 205.784 353.85 204.76 357.57L198.551 380.108C197.084 385.432 200.211 390.938 205.536 392.404L210.502 393.772C215.826 395.239 221.332 392.111 222.799 386.787L236.635 336.56Z" fill="white"/>
<rect width="80.7311" height="78.2431" transform="matrix(0.964097 0.26555 -0.265592 0.964085 187.306 244.392)" fill="#F2F2F2"/>
<rect width="75.763" height="22.3552" transform="matrix(0.964097 0.26555 -0.265592 0.964085 172.218 308.511)" fill="#F2F2F2"/>
<rect width="6.21009" height="78.2432" transform="matrix(0.964097 0.26555 -0.265592 0.964086 199.28 247.69)" fill="url(#paint4_linear_1_359)"/>
<rect width="6.2101" height="78.2431" transform="matrix(0.964097 0.265549 -0.265593 0.964085 244.782 260.223)" fill="url(#paint5_linear_1_359)"/>
<rect width="80.7311" height="2.48391" transform="matrix(0.964097 0.26555 -0.265592 0.964085 167.185 317.431)" fill="#9A9A9A"/>
<rect width="8.69415" height="19.8713" rx="4.34707" transform="matrix(0.964097 0.265549 -0.265593 0.964085 273.385 235.897)" fill="white"/>
<rect width="8.69412" height="19.8713" rx="4.34706" transform="matrix(0.964097 0.26555 -0.265592 0.964086 187.17 212.15)" fill="white"/>
<path d="M274.097 246.398C267.576 270.071 243.097 283.976 219.423 277.455C195.748 270.934 181.843 246.457 188.365 222.784C194.886 199.111 219.365 185.207 243.039 191.728C266.714 198.249 280.619 222.726 274.097 246.398Z" fill="white" stroke="#F2F2F2" stroke-width="0.5"/>
<path fill-rule="evenodd" clip-rule="evenodd" d="M273.943 247.644C266.449 269.994 242.69 282.835 219.686 276.499C196.682 270.163 182.85 246.968 187.859 223.933C187.597 224.714 187.355 225.506 187.134 226.31C180.576 250.116 194.559 274.731 218.367 281.288C242.174 287.846 266.79 273.863 273.349 250.057C273.57 249.253 273.768 248.449 273.943 247.644Z" fill="#DDDDDD"/>
<path fill-rule="evenodd" clip-rule="evenodd" d="M272.624 252.434C265.129 274.783 241.37 287.624 218.367 281.288C195.363 274.952 181.531 251.757 186.54 228.722C186.278 229.503 186.036 230.296 185.815 231.099C179.256 254.905 193.24 279.52 217.047 286.077C240.855 292.635 265.471 278.652 272.029 254.846C272.251 254.043 272.449 253.238 272.624 252.434Z" fill="white"/>
<path d="M273.799 230.858C262.233 216.723 222.449 204.476 200.114 206.054C188.415 222.799 185.936 243.068 198.998 259.207C206.251 268.168 213.328 271.374 224.56 273.977C232.869 275.902 238.198 276.534 246.4 274.195C265.657 268.705 275.021 242.788 273.799 230.858Z" fill="black"/>
<rect x="234.008" y="284.788" width="2.48404" height="1.24196" rx="0.620981" transform="rotate(-4.59913 234.008 284.788)" fill="#C4C4C4"/>
<rect width="1.24206" height="1.24191" rx="0.620954" transform="matrix(0.99678 -0.0801843 0.0801826 0.99678 239.457 283.712)" fill="#C4C4C4"/>
<mask id="mask0_1_359" style="mask-type:alpha" maskUnits="userSpaceOnUse" x="190" y="205" width="84" height="71">
<path d="M273.799 230.858C262.233 216.723 222.449 204.476 200.114 206.054C188.415 222.799 185.936 243.068 198.998 259.207C206.251 268.168 213.328 271.374 224.56 273.977C232.869 275.902 238.198 276.534 246.4 274.196C265.657 268.705 275.021 242.789 273.799 230.858Z" fill="black"/>
</mask>
<g mask="url(#mask0_1_359)">
<rect width="12.4197" height="68.8181" transform="matrix(0.637436 0.770503 -0.770543 0.637388 233.1 199.737)" fill="#484848"/>
<rect width="7.00796" height="72.5482" transform="matrix(0.637436 0.770503 -0.770543 0.637388 250.507 211.834)" fill="#484848"/>
</g>
<ellipse cx="8.07311" cy="8.0727" rx="8.07311" ry="8.0727" transform="matrix(0.964097 0.26555 -0.265592 0.964086 202.859 211.318)" fill="#828282" fill-opacity="0.5"/>
<ellipse cx="4.34708" cy="4.34683" rx="4.34708" ry="4.34683" transform="matrix(0.964098 0.265548 -0.265594 0.964085 214.833 214.616)" fill="#828282" fill-opacity="0.5"/>
<ellipse cx="3.10503" cy="3.10489" rx="3.10503" ry="3.10489" transform="matrix(0.964097 0.265552 -0.26559 0.964086 199.56 223.292)" fill="#828282" fill-opacity="0.5"/>
<ellipse cx="3.10504" cy="3.10489" rx="3.10504" ry="3.10489" transform="matrix(0.964097 0.265551 -0.265592 0.964086 214.991 195.337)" fill="#E8E8E8"/>
<ellipse cx="3.10506" cy="3.10489" rx="3.10506" ry="3.10489" transform="matrix(0.964098 0.265548 -0.265594 0.964085 229.482 194.175)" fill="#E8E8E8"/>
<rect width="33.5345" height="17.3874" rx="5" transform="matrix(0.964097 0.26555 -0.265592 0.964086 198.304 288.644)" fill="#251D3A"/>
<path d="M218.001 296.646L210.399 300.188L215.395 300.759L205.123 305.981" stroke="#FF7700"/>
<path d="M178.766 261.363C181.82 259.628 185.227 262.069 186.549 263.507L183.25 275.48C183.25 275.48 166.285 285.622 159.535 284.407C155.868 283.746 136.074 257.333 136.074 257.333L143.13 245.751L163.028 267.208C163.603 267.828 164.505 268.021 165.281 267.683C169.288 265.938 176.033 262.915 178.766 261.363Z" fill="white"/>
<ellipse cx="8.07312" cy="8.07269" rx="8.07312" ry="8.07269" transform="matrix(0.964097 0.265549 -0.265593 0.964085 131.98 239.459)" fill="url(#paint6_radial_1_359)"/>
<defs>
<radialGradient id="paint0_radial_1_359" cx="0" cy="0" r="1" gradientUnits="userSpaceOnUse" gradientTransform="translate(32.913 36.6382) rotate(69.6463) scale(41.0651 41.0658)">
<stop stop-color="#FFEFFB"/>
<stop offset="1" stop-color="#E04D01"/>
</radialGradient>
<radialGradient id="paint1_radial_1_359" cx="0" cy="0" r="1" gradientUnits="userSpaceOnUse" gradientTransform="translate(32.9133 36.6378) rotate(69.646) scale(41.0648 41.0661)">
<stop stop-color="#FFEFFB"/>
<stop offset="1" stop-color="#E04D01"/>
</radialGradient>
<radialGradient id="paint2_radial_1_359" cx="0" cy="0" r="1" gradientUnits="userSpaceOnUse" gradientTransform="translate(32.9137 36.6374) rotate(69.6455) scale(41.0644 41.0665)">
<stop stop-color="#FFEFFB"/>
<stop offset="1" stop-color="#FF7700"/>
</radialGradient>
<radialGradient id="paint3_radial_1_359" cx="0" cy="0" r="1" gradientUnits="userSpaceOnUse" gradientTransform="translate(9.93614 9.93564) rotate(-156.802) scale(4.72943 4.72926)">
<stop stop-color="white"/>
<stop offset="1" stop-color="#DDDDDD"/>
</radialGradient>
<linearGradient id="paint4_linear_1_359" x1="3.10504" y1="0" x2="3.10504" y2="78.2432" gradientUnits="userSpaceOnUse">
<stop stop-color="#FF7700"/>
<stop offset="1" stop-color="#232030"/>
</linearGradient>
<linearGradient id="paint5_linear_1_359" x1="3.10505" y1="0" x2="3.10505" y2="78.2431" gradientUnits="userSpaceOnUse">
<stop stop-color="#FF7700"/>
<stop offset="1" stop-color="#232030"/>
</linearGradient>
<radialGradient id="paint6_radial_1_359" cx="0" cy="0" r="1" gradientUnits="userSpaceOnUse" gradientTransform="translate(4.96807 4.34683) rotate(80.5372) scale(3.77726 3.77744)">
<stop stop-color="white"/>
<stop offset="1" stop-color="#DDDDDD"/>
</radialGradient>
</defs>
</svg>
